<svg xmlns="http://www.w3.org/2000/svg" height="512" viewBox="0 0 61 61" width="512" fill="#000" fill-rule="nonzero"><path d="M49 25a24.04 24.04 0 1 0-9.291 18.944l2.36 2.356a2.75 2.75 0 0 0 .549 2.351l9.2 11.328a2.76 2.76 0 0 0 2 1.016h.14c.732 0 1.434-.3 1.952-.8l4.277-4.277a2.76 2.76 0 0 0-.21-4.093l-11.328-9.2a2.75 2.75 0 0 0-2.352-.549l-2.357-2.36C47.22 35.508 49.002 30.33 49 25zM3 25C3 12.85 12.85 3 25 3s22 9.85 22 22-9.85 22-22 22A22.03 22.03 0 0 1 3 25zm56 28.924c.013.215-.068.425-.222.576L54.5 58.777c-.15.155-.36.236-.576.222s-.415-.1-.55-.28l-6.77-8.33 3.784-3.784 8.33 6.77a.75.75 0 0 1 .28.55zm-10.17-8.587l-3.492 3.492-1.168-1.437c-.246-.302-.224-.74.053-1.016l2.153-2.153c.274-.277.714-.3 1.016-.053zm-4.24-2.155l-1.406 1.406-1.94-1.94c.488-.45.957-.917 1.406-1.406zM25 5C13.954 5 5 13.954 5 25s8.954 20 20 20 20-8.954 20-20c-.013-11.04-8.96-19.987-20-20zm0 2a17.97 17.97 0 0 1 15.619 26.911 18.29 18.29 0 0 0-1.72-1.855.84.84 0 0 0-.086-.072 18.96 18.96 0 0 0-28.52 3.358c-3.876-5.5-4.367-12.682-1.272-18.646S18.28 7 25 7zM11.615 36.992a16.82 16.82 0 0 1 8.5-6.92 5.54 5.54 0 0 1 .618 1.741 3.69 3.69 0 0 0 2.488 2.812l.267.092a2.18 2.18 0 0 1 1.423 1.342c.308.983-.196 2.036-1.154 2.413l-3.4 1.36a5.16 5.16 0 0 0-2.265 1.783 18.04 18.04 0 0 1-6.477-4.624zm8.513 5.32c.284-.266.614-.477.974-.624l3.4-1.358a3.95 3.95 0 0 0 2.328-4.85 4.14 4.14 0 0 0-2.7-2.656l-.28-.1c-.588-.178-1.033-.663-1.16-1.265a7.72 7.72 0 0 0-.654-1.993 16.95 16.95 0 0 1 14.342 3.095c-2.83 1.575-4.518 4.624-4.348 7.86a9.66 9.66 0 0 0 .071 1.109 17.79 17.79 0 0 1-11.983.783zm13.918-1.776c0-.038-.006-.078-.006-.116A6.6 6.6 0 0 1 38 33.993c.524.527 1.013 1.087 1.463 1.678a18.09 18.09 0 0 1-5.417 4.865zM22 18h.54c.717 1.245 2.047 2.008 3.483 2a3.99 3.99 0 0 0 3.46-2.04 3 3 0 0 0-.609-5.96 4 4 0 0 0-7.781.137A3 3 0 0 0 22 18zm0-4a1 1 0 0 0 1-1 2 2 0 1 1 4 .067 1 1 0 0 0 1.494 1.07A.97.97 0 0 1 29 14a1 1 0 1 1 0 2h-.18a1 1 0 0 0-.946.676 1.99 1.99 0 0 1-3.748 0A1 1 0 0 0 23.18 16H22a1 1 0 1 1 0-2zm-2 9a1 1 0 0 0 1-1v-1a1 1 0 1 0-2 0v1a1 1 0 0 0 1 1zm10-2a1 1 0 0 0-1 1v1a1 1 0 1 0 2 0v-1a1 1 0 0 0-1-1zm-5 1a1 1 0 0 0-1 1v1a1 1 0 1 0 2 0v-1a1 1 0 0 0-1-1z"/></svg>